<svg xmlns="http://www.w3.org/2000/svg" viewBox="0 0 48.69 49.24"><defs><style>.cls-1{fill:#b7005f;}</style></defs><title>ico_link</title><g id="Capa_2" data-name="Capa 2"><g id="Capa_1-2" data-name="Capa 1"><path class="cls-1" d="M47.53,12,37.22,1.23a3.94,3.94,0,0,0-5.65-.08L21.15,11.58a4.12,4.12,0,0,0,0,5.75l.53.56L32,7.52a3,3,0,0,1,4.35.07l4.92,5.1a3.19,3.19,0,0,1,0,4.44L30.9,27.49l.53.56a3.94,3.94,0,0,0,5.65.08L47.5,17.71A4.12,4.12,0,0,0,47.53,12Z"/><path class="cls-1" d="M27,31.36,16.67,41.72a3,3,0,0,1-4.35-.06L7.4,36.55a3.19,3.19,0,0,1,0-4.44L17.79,21.75l-.53-.56a3.94,3.94,0,0,0-5.65-.08L1.18,31.53a4.14,4.14,0,0,0,0,5.76L11.47,48a3.93,3.93,0,0,0,5.64.08L27.54,37.67a4.13,4.13,0,0,0,0-5.76Z"/><path class="cls-1" d="M13.14,30.9a5.59,5.59,0,0,0,1.58,3.34c1.89,2,4.69,2.28,6.26.72L34.55,21.39a3.73,3.73,0,0,0,1-3A5.62,5.62,0,0,0,34,15c-1.89-2-4.69-2.28-6.26-.71L14.14,27.85A3.74,3.74,0,0,0,13.14,30.9Z"/></g></g></svg>