<svg xmlns="http://www.w3.org/2000/svg" viewBox="0 0 51.1 49.04"><defs><style>.cls-1{fill:#b7005f;}</style></defs><title>ico_asesoramiento</title><g id="Capa_2" data-name="Capa 2"><g id="Capa_1-2" data-name="Capa 1"><path class="cls-1" d="M51.08,25.31c0-7.37,0-14.73,0-22.09A3.07,3.07,0,0,0,47.93,0c-.6,0-1.2,0-1.8,0H22.48Q12.91,0,3.35,0A3,3,0,0,0,.12,2.49,6.73,6.73,0,0,0,0,4.11q0,11.51,0,23C0,30.39,0,33.68,0,37a2.91,2.91,0,0,0,2.68,3.09,12,12,0,0,0,1.8.13H20.23c-.08,1.16-.13,2.19-.22,3.22a4,4,0,0,1-2.36,3.4,11.89,11.89,0,0,0-1.67,1,3.42,3.42,0,0,0-.6.88,3.2,3.2,0,0,0,.95.31H35.06a2.61,2.61,0,0,0,.84-.31c-.16-.29-.25-.67-.5-.84-.68-.49-1.43-.9-2.16-1.33a3.65,3.65,0,0,1-1.86-2.75c-.14-1.16-.17-2.33-.26-3.61h.95c3.78,0,7.55,0,11.32,0,1.67,0,3.34,0,5-.14a2.64,2.64,0,0,0,2.53-2.2,8,8,0,0,0,.18-1.62C51.1,32.58,51.08,29,51.08,25.31Zm-4.15,6.24H4.12V4.17H46.93Z"/></g></g></svg>