<svg xmlns="http://www.w3.org/2000/svg" viewBox="0 0 29.81 29.81"><defs><style>.cls-1{fill:#fff;}</style></defs><title>ico_whatsapp</title><g id="Capa_2" data-name="Capa 2"><g id="Capa_1-2" data-name="Capa 1"><path class="cls-1" d="M0,29.81c.36-1.07.71-2.09,1.05-3.11.49-1.44,1-2.88,1.46-4.33a.92.92,0,0,0-.06-.61A14.62,14.62,0,1,1,29.6,12.11,14.63,14.63,0,0,1,8.43,27.43a.87.87,0,0,0-.74-.05L.45,29.68Zm3.65-3.57.61-.18c1.26-.4,2.53-.81,3.8-1.2a.89.89,0,0,1,.6.07A12.33,12.33,0,0,0,27.28,12.27,12.32,12.32,0,0,0,13,2.51,12.19,12.19,0,0,0,4.94,21.33a.85.85,0,0,1,.1.84C4.58,23.49,4.14,24.82,3.65,26.24Z"/><path class="cls-1" d="M8,11.17a4.18,4.18,0,0,1,1.07-2.6,2.24,2.24,0,0,1,2-.68.84.84,0,0,1,.54.45c.44,1,.85,1.95,1.24,2.94a.72.72,0,0,1-.06.59A6.24,6.24,0,0,1,12,13a.65.65,0,0,0-.1.92A9.86,9.86,0,0,0,16.78,18a.57.57,0,0,0,.74-.18c.35-.43.72-.85,1.05-1.29a.58.58,0,0,1,.79-.25c1,.46,2,.93,3,1.43a.79.79,0,0,1,.25.6,3.08,3.08,0,0,1-2.55,2.92,5,5,0,0,1-2.37-.15,13.78,13.78,0,0,1-8-5.85,8.28,8.28,0,0,1-1.54-3.1C8.07,11.84,8.05,11.5,8,11.17Z"/></g></g></svg>