<svg xmlns="http://www.w3.org/2000/svg" viewBox="0 0 96.89 48.83"><defs><style>.cls-1{fill:#b7005f;}</style></defs><title>ico_rapido</title><g id="Capa_2" data-name="Capa 2"><g id="Capa_1-2" data-name="Capa 1"><path class="cls-1" d="M48.35,48.82c-8.59,0-17.18,0-25.77,0a6.18,6.18,0,0,1-3.23-.94,3,3,0,0,1-.93-3.66A3.46,3.46,0,0,1,22,41.79c3.38,0,6.76,0,10.13,0H42.24c2.58,0,4.07-1.3,4.06-3.46s-1.55-3.5-4.09-3.5q-18.51,0-37,0c-.61,0-1.23,0-1.84,0A3.42,3.42,0,0,1,0,31.52a3.51,3.51,0,0,1,3-3.65,11.31,11.31,0,0,1,2-.09l27.25,0c2.36,0,3.84-1.2,4-3.16S34.85,21,32.42,21c-5.77-.05-11.54,0-17.31,0-2.31,0-3.7-1.15-3.89-3.07C11,15.53,12.43,14,15,13.92c4.17-.05,8.35,0,12.52,0H42.6a3.4,3.4,0,0,0,3.48-2.23A3,3,0,0,0,45.18,8a5.25,5.25,0,0,0-2.86-.92c-5.33-.09-10.68,0-16,0-2.69,0-4.35-1.79-4-4.14A3.45,3.45,0,0,1,26.05,0C31,0,36,0,41,0,51.58,0,62.2,0,72.82,0c12.11.1,22.56,9.31,23.89,20.89,1.48,12.93-6.13,24.25-18.41,27.2a26.93,26.93,0,0,1-6,.66C64.31,48.86,56.33,48.82,48.35,48.82ZM92.8,24.68a20.3,20.3,0,1,0-20.68,20A20.3,20.3,0,0,0,92.8,24.68Z"/><path class="cls-1" d="M11.2,3.42A3.36,3.36,0,0,1,14.75,0,3.46,3.46,0,0,1,18.18,3.6,3.59,3.59,0,0,1,14.57,7,3.47,3.47,0,0,1,11.2,3.42Z"/><path class="cls-1" d="M11.09,48.8a3.46,3.46,0,0,1-3.48-3.5,3.57,3.57,0,0,1,3.55-3.48,3.47,3.47,0,0,1,3.44,3.55A3.36,3.36,0,0,1,11.09,48.8Z"/><path class="cls-1" d="M74.59,19.62c1.24,4-.93,7.49-4.64,10.34-.58.45-1,1.06-1.6,1.52-.94.75-2.14.83-2.73-.18a3,3,0,0,1,0-2.73c1.06-1.47,2.6-2.59,3.78-4a4.61,4.61,0,0,0,1.06-2.52c.13-2.93.07-5.87,0-8.81,0-1.42.45-2.46,2-2.46s2.07,1,2.07,2.45C74.59,15.07,74.59,16.91,74.59,19.62Z"/></g></g></svg>