<svg xmlns="http://www.w3.org/2000/svg" viewBox="0 0 59.89 48.76"><defs><style>.cls-1{fill:#b7005f;}</style></defs><title>ico_soporte</title><g id="Capa_2" data-name="Capa 2"><g id="Capa_1-2" data-name="Capa 1"><path class="cls-1" d="M56.62,39.23a16,16,0,0,1-2.24-11.91,21.19,21.19,0,0,0-1-10.21C47.93,1.37,27.3-4.92,12,4.25-3.74,13.67-4.1,34.52,11.54,44c10.51,6.4,21.4,6.23,32-.15A9.31,9.31,0,0,1,52.37,43c2.22.87,4.52,1.53,7.52,2.53C58.54,42.87,57.71,41,56.62,39.23ZM16.07,30.15a4.08,4.08,0,1,1,4.08-4.07A4.07,4.07,0,0,1,16.07,30.15Zm11.08,0a4.08,4.08,0,1,1,4.08-4.07A4.07,4.07,0,0,1,27.15,30.15Zm11.05,0a4.08,4.08,0,1,1,4.08-4.07A4.07,4.07,0,0,1,38.2,30.15Z"/></g></g></svg>