<svg xmlns="http://www.w3.org/2000/svg" xmlns:xlink="http://www.w3.org/1999/xlink" viewBox="0 0 234.65 64.86"><defs><style>.cls-1{fill:url(#Degradado_sin_nombre_10);}.cls-2{fill:url(#Degradado_sin_nombre_10-2);}.cls-3{fill:url(#Degradado_sin_nombre_10-3);}.cls-4{fill:url(#Degradado_sin_nombre_10-4);}.cls-5{fill:url(#Degradado_sin_nombre_10-5);}.cls-6{fill:url(#Degradado_sin_nombre_10-6);}.cls-7{fill:url(#Degradado_sin_nombre_10-7);}.cls-8{fill:url(#Degradado_sin_nombre_10-8);}.cls-9{fill:url(#Degradado_sin_nombre_10-9);}.cls-10{fill:url(#Degradado_sin_nombre_10-10);}.cls-11{fill:url(#Degradado_sin_nombre_10-11);}.cls-12{fill:url(#Degradado_sin_nombre_10-12);}.cls-13{fill:url(#Degradado_sin_nombre_10-13);}.cls-14{fill:url(#Degradado_sin_nombre_10-14);}.cls-15{fill:url(#Degradado_sin_nombre_10-15);}.cls-16{fill:url(#Degradado_sin_nombre_10-16);}.cls-17{fill:url(#Degradado_sin_nombre_10-17);}.cls-18{fill:url(#Degradado_sin_nombre_10-18);}.cls-19{fill:url(#Degradado_sin_nombre_10-19);}</style><linearGradient id="Degradado_sin_nombre_10" x1="42.95" y1="31.74" x2="50.45" y2="31.74" gradientUnits="userSpaceOnUse"><stop offset="0" stop-color="#a42080"/><stop offset="1" stop-color="#981c82"/></linearGradient><linearGradient id="Degradado_sin_nombre_10-2" x1="0" y1="32.43" x2="69.63" y2="32.43" xlink:href="#Degradado_sin_nombre_10"/><linearGradient id="Degradado_sin_nombre_10-3" x1="78.23" y1="17.12" x2="96.61" y2="17.12" xlink:href="#Degradado_sin_nombre_10"/><linearGradient id="Degradado_sin_nombre_10-4" x1="98.02" y1="17.12" x2="120.4" y2="17.12" xlink:href="#Degradado_sin_nombre_10"/><linearGradient id="Degradado_sin_nombre_10-5" x1="123.16" y1="16.91" x2="144.39" y2="16.91" xlink:href="#Degradado_sin_nombre_10"/><linearGradient id="Degradado_sin_nombre_10-6" x1="146.86" y1="14.03" x2="162.58" y2="14.03" xlink:href="#Degradado_sin_nombre_10"/><linearGradient id="Degradado_sin_nombre_10-7" x1="163.5" y1="17.11" x2="186.53" y2="17.11" xlink:href="#Degradado_sin_nombre_10"/><linearGradient id="Degradado_sin_nombre_10-8" x1="78.02" y1="44.62" x2="100.45" y2="44.62" xlink:href="#Degradado_sin_nombre_10"/><linearGradient id="Degradado_sin_nombre_10-9" x1="103.13" y1="44.4" x2="124.3" y2="44.4" xlink:href="#Degradado_sin_nombre_10"/><linearGradient id="Degradado_sin_nombre_10-10" x1="127.71" y1="44.81" x2="150.32" y2="44.81" xlink:href="#Degradado_sin_nombre_10"/><linearGradient id="Degradado_sin_nombre_10-11" x1="153.49" y1="44.4" x2="174.64" y2="44.4" xlink:href="#Degradado_sin_nombre_10"/><linearGradient id="Degradado_sin_nombre_10-12" x1="177.14" y1="44.61" x2="198.54" y2="44.61" xlink:href="#Degradado_sin_nombre_10"/><linearGradient id="Degradado_sin_nombre_10-13" x1="201.37" y1="29.13" x2="208.97" y2="29.13" xlink:href="#Degradado_sin_nombre_10"/><linearGradient id="Degradado_sin_nombre_10-14" x1="201.37" y1="44.6" x2="208.97" y2="44.6" xlink:href="#Degradado_sin_nombre_10"/><linearGradient id="Degradado_sin_nombre_10-15" x1="211.61" y1="44.6" x2="234.65" y2="44.6" xlink:href="#Degradado_sin_nombre_10"/><linearGradient id="Degradado_sin_nombre_10-16" x1="34.35" y1="63.48" x2="36.33" y2="63.48" xlink:href="#Degradado_sin_nombre_10"/><linearGradient id="Degradado_sin_nombre_10-17" x1="37.3" y1="61.29" x2="44.12" y2="61.29" xlink:href="#Degradado_sin_nombre_10"/><linearGradient id="Degradado_sin_nombre_10-18" x1="44.54" y1="61.29" x2="51.94" y2="61.29" xlink:href="#Degradado_sin_nombre_10"/><linearGradient id="Degradado_sin_nombre_10-19" x1="52.79" y1="61.22" x2="63.62" y2="61.22" xlink:href="#Degradado_sin_nombre_10"/></defs><title>logo_santo_anuncio</title><g id="Capa_2" data-name="Capa 2"><g id="Capa_1-2" data-name="Capa 1"><g id="Capa_2-2" data-name="Capa 2"><g id="Capa_1-2-2" data-name="Capa 1-2"><path class="cls-1" d="M48.61,29.28a9.27,9.27,0,0,0-1.74-.19,4.64,4.64,0,0,0-2.82.82A2.49,2.49,0,0,0,43,32a2.13,2.13,0,0,0,.83,1.75A3.45,3.45,0,0,0,46,34.4a5.62,5.62,0,0,0,1.72-.27,6,6,0,0,0,1.56-.71,3.85,3.85,0,0,0,.87-.84,1.56,1.56,0,0,0,.35-.95v-.19A2.24,2.24,0,0,0,48.61,29.28Z"/><path class="cls-2" d="M62.65,0H7A7,7,0,0,0,0,7V63.37c0,1,1.42,1.78,2.7,1.37l25.17-8.62,1-.33a5.77,5.77,0,0,1,1.08-.23,4.69,4.69,0,0,1,.75,0h32a7,7,0,0,0,7-7h0V7A7,7,0,0,0,62.65,0Zm-33,36.07a7.82,7.82,0,0,1-2.07,2.67,9.46,9.46,0,0,1-3.4,1.7,15.39,15.39,0,0,1-4.42.59,20.34,20.34,0,0,1-6.56-1.1A14.6,14.6,0,0,1,9.37,38a2.22,2.22,0,0,1-.62-2.93l1-1.8a2.22,2.22,0,0,1,3-.92l.07,0a20.73,20.73,0,0,0,2.63,1.3,11.23,11.23,0,0,0,4,.88c1.29,0,1.94-.41,1.94-1.22a1.37,1.37,0,0,0-.74-1.17,12.89,12.89,0,0,0-2.94-1.11,40.2,40.2,0,0,1-4.53-1.53,12.84,12.84,0,0,1-2.95-1.62A5.2,5.2,0,0,1,8.72,26a6.05,6.05,0,0,1-.45-2.52,8.38,8.38,0,0,1,.78-3.59A9.09,9.09,0,0,1,11.21,17a9.82,9.82,0,0,1,3.27-1.85,12.65,12.65,0,0,1,4.14-.67,19.17,19.17,0,0,1,5.37.74,11.85,11.85,0,0,1,3.42,1.64A2.25,2.25,0,0,1,28,20l-1,1.66a2.39,2.39,0,0,1-3.2,1h0a18.13,18.13,0,0,0-2.07-1,8.19,8.19,0,0,0-3.07-.78,2.81,2.81,0,0,0-1.36.32,1,1,0,0,0-.53,1,1.36,1.36,0,0,0,.85,1.2,12.68,12.68,0,0,0,3.06,1,36.78,36.78,0,0,1,4.66,1.53,12.46,12.46,0,0,1,3,1.75,5.35,5.35,0,0,1,1.62,2.14,6.91,6.91,0,0,1,.49,2.73A8.32,8.32,0,0,1,29.67,36.07Zm31.74,2.56a2.25,2.25,0,0,1-1.95,2.25h-.17a15.05,15.05,0,0,1-1.77.13,6.42,6.42,0,0,1-3.73-.89,4.08,4.08,0,0,1-1.68-2.63l-.2-.93A11.69,11.69,0,0,1,48,39.89,10.39,10.39,0,0,1,43.24,41a9.72,9.72,0,0,1-3.54-.63,9,9,0,0,1-2.85-1.74A7.86,7.86,0,0,1,35,36.07a8,8,0,0,1,.18-6.79,8.44,8.44,0,0,1,2.28-2.76,10.74,10.74,0,0,1,3.41-1.8,15.11,15.11,0,0,1,4.43-.63,12.1,12.1,0,0,1,5.18,1v-.77a3.25,3.25,0,0,0-1-2.66,5.12,5.12,0,0,0-3.37-.88,11.46,11.46,0,0,0-4,.7,16.47,16.47,0,0,0-1.81.83,2.28,2.28,0,0,1-3.08-1l0,0-.78-1.6a2.24,2.24,0,0,1,1-3A21.24,21.24,0,0,1,47,14.51c4.08,0,7.24.91,9.4,2.71s3.3,4.53,3.3,8.15v5a3.24,3.24,0,0,0,.3,1.84,1.37,1.37,0,0,0,.42.34,2.08,2.08,0,0,1,1,1.82Z"/><path class="cls-3" d="M82.46,27.13a16.54,16.54,0,0,0,5.4.9,12.91,12.91,0,0,0,3.66-.48,8.14,8.14,0,0,0,2.75-1.4A6.07,6.07,0,0,0,96,24a6.87,6.87,0,0,0,.6-2.93,6,6,0,0,0-.41-2.26A4.47,4.47,0,0,0,94.85,17a9.85,9.85,0,0,0-2.49-1.44,26.12,26.12,0,0,0-3.84-1.26,11.39,11.39,0,0,1-2.5-.87,1.13,1.13,0,0,1-.64-1,.85.85,0,0,1,.44-.81,2.09,2.09,0,0,1,1.12-.27,6.43,6.43,0,0,1,2.48.54A18,18,0,0,1,92,13.26.87.87,0,0,0,93.16,13h0l2-3.14A.88.88,0,0,0,95,8.7a11.19,11.19,0,0,0-3.63-1.95,16.4,16.4,0,0,0-4.41-.54,11,11,0,0,0-3.46.53,8.23,8.23,0,0,0-2.72,1.53A7.36,7.36,0,0,0,79,10.63a6.89,6.89,0,0,0-.64,3,5.07,5.07,0,0,0,.41,2.07,4.11,4.11,0,0,0,1.33,1.59,10.84,10.84,0,0,0,2.44,1.37,34.9,34.9,0,0,0,3.74,1.25,11.07,11.07,0,0,1,2.42.92,1.15,1.15,0,0,1,.62,1c0,.66-.54,1-1.61,1a9.14,9.14,0,0,1-3.33-.73,19.41,19.41,0,0,1-3-1.54.87.87,0,0,0-1.2.27l0,0-1.8,3.1a.87.87,0,0,0,.19,1A12.35,12.35,0,0,0,82.46,27.13Z"/><path class="cls-4" d="M109.33,27.09a9.84,9.84,0,0,0,3.24-2.74l.15.76a3.53,3.53,0,0,0,1.38,2.18,5.45,5.45,0,0,0,3.1.74,11.8,11.8,0,0,0,1.46-.1l1-.16a.88.88,0,0,0,.7-.86v-5a.89.89,0,0,0-.6-.82,1.28,1.28,0,0,1-.52-.37,2.54,2.54,0,0,1-.32-1.5V15.15c0-3-.9-5.22-2.72-6.71s-4.39-2.23-7.75-2.23a17.14,17.14,0,0,0-8.81,2.27.88.88,0,0,0-.38,1.11l1.46,3.1a.86.86,0,0,0,1.14.42l.1-.06a16.83,16.83,0,0,1,2.37-1.17,9.35,9.35,0,0,1,3.32-.57,4.29,4.29,0,0,1,2.78.72,2.7,2.7,0,0,1,.86,2.19v.64a10,10,0,0,0-4.24-.79,11.91,11.91,0,0,0-3.66.51,9,9,0,0,0-2.86,1.48,7.14,7.14,0,0,0-1.88,2.28A6.14,6.14,0,0,0,98,21.26,6.27,6.27,0,0,0,98.57,24a6.76,6.76,0,0,0,1.54,2.13,7,7,0,0,0,2.34,1.41,7.87,7.87,0,0,0,2.92.53A8.61,8.61,0,0,0,109.33,27.09Zm-3.2-8.27a3.82,3.82,0,0,1,2.31-.68,7.85,7.85,0,0,1,1.45.16l.87.2a.88.88,0,0,1,.61.84v.92a1.28,1.28,0,0,1-.28.78,3.19,3.19,0,0,1-.72.7,5,5,0,0,1-1.29.58,4.7,4.7,0,0,1-1.39.22,2.78,2.78,0,0,1-1.78-.56,1.8,1.8,0,0,1-.71-1.44,2.06,2.06,0,0,1,.93-1.67Z"/><path class="cls-5" d="M124,27.63h5.87a.88.88,0,0,0,.86-.87V16a.9.9,0,0,1,.08-.36,4.82,4.82,0,0,1,1.56-2,3.34,3.34,0,0,1,2.07-.83,2.17,2.17,0,0,1,1.62.69,3.09,3.09,0,0,1,.69,2.26v11a.89.89,0,0,0,.88.87h5.86a.88.88,0,0,0,.87-.87v-13a16,16,0,0,0-.2-2.39,7.11,7.11,0,0,0-.86-2.48A5.6,5.6,0,0,0,141.41,7a6.44,6.44,0,0,0-3.5-.76,11.5,11.5,0,0,0-4.77.9,7.73,7.73,0,0,0-1.75,1A.86.86,0,0,1,130.18,8a.85.85,0,0,1-.18-.53.88.88,0,0,0-.87-.87H124a.88.88,0,0,0-.87.87V26.76A.88.88,0,0,0,124,27.63Z"/><path class="cls-6" d="M159.29,27.61a23.38,23.38,0,0,0,2.73-.86.88.88,0,0,0,.53-1l-1.19-5.24a7.91,7.91,0,0,1-1.44.5,5.56,5.56,0,0,1-1.28.18,1.7,1.7,0,0,1-1.2-.42,2,2,0,0,1-.43-1.46V13.19a.86.86,0,0,1,.86-.87h2.46a.86.86,0,0,0,.86-.87v-4a.86.86,0,0,0-.86-.87H158a.88.88,0,0,1-.87-.87V.87a.88.88,0,0,0-.89-.87h-5.86a.89.89,0,0,0-.88.87V5.73a.86.86,0,0,1-.86.87h-.86a.87.87,0,0,0-.87.87v4a.88.88,0,0,0,.87.87h.86a.85.85,0,0,1,.86.85V22a7.24,7.24,0,0,0,.53,2.87,4.93,4.93,0,0,0,1.36,1.89,5.31,5.31,0,0,0,2.07,1,9.07,9.07,0,0,0,2.44.31A14.74,14.74,0,0,0,159.29,27.61Z"/><path class="cls-7" d="M183.59,24.73a9.85,9.85,0,0,0,2.2-3.48,12,12,0,0,0,0-8.28,9.81,9.81,0,0,0-2.2-3.47A10.66,10.66,0,0,0,180,7.1a14.17,14.17,0,0,0-9.94,0,10.53,10.53,0,0,0-3.6,2.4A9.79,9.79,0,0,0,164.25,13a11.8,11.8,0,0,0,0,8.28,9.69,9.69,0,0,0,2.19,3.48,10.92,10.92,0,0,0,3.6,2.4,14.17,14.17,0,0,0,9.94,0A10.81,10.81,0,0,0,183.59,24.73Zm-5.9-4.3a3.58,3.58,0,0,1-5.06.29,2.65,2.65,0,0,1-.29-.29,4.92,4.92,0,0,1-1-3.32,4.9,4.9,0,0,1,1-3.32,3.6,3.6,0,0,1,5.09-.26,3.19,3.19,0,0,1,.26.26,4.9,4.9,0,0,1,1,3.32,4.92,4.92,0,0,1-1,3.32Z"/><path class="cls-8" d="M99.77,48.62a1.19,1.19,0,0,1-.52-.37,2.61,2.61,0,0,1-.31-1.5V42.62q0-4.47-2.72-6.72c-1.82-1.49-4.4-2.23-7.76-2.23A17.32,17.32,0,0,0,79.65,36a.88.88,0,0,0-.34,1.12l1.45,3.1a.89.89,0,0,0,1.18.41l.07,0a13.73,13.73,0,0,1,2.37-1.17,9.14,9.14,0,0,1,3.31-.59,4.36,4.36,0,0,1,2.79.72,2.74,2.74,0,0,1,.85,2.21v.7a10,10,0,0,0-4.23-.8,12.6,12.6,0,0,0-3.66.52,8.57,8.57,0,0,0-2.86,1.48,7.14,7.14,0,0,0-1.88,2.28A6.33,6.33,0,0,0,78,48.81a6.47,6.47,0,0,0,.59,2.63,6.54,6.54,0,0,0,1.54,2.14A7.2,7.2,0,0,0,82.49,55a8.06,8.06,0,0,0,2.92.51,8.36,8.36,0,0,0,3.92-.94,9.72,9.72,0,0,0,3.24-2.74l.16.77a3.45,3.45,0,0,0,1.4,2.22,5.43,5.43,0,0,0,3.1.74,12.12,12.12,0,0,0,1.47-.11,8.81,8.81,0,0,0,1-.15.89.89,0,0,0,.72-.86v-5A.89.89,0,0,0,99.77,48.62Zm-8.44-.79a1.3,1.3,0,0,1-.31.79,3.58,3.58,0,0,1-.71.69,5.47,5.47,0,0,1-1.28.58,4.71,4.71,0,0,1-1.4.22,2.7,2.7,0,0,1-1.78-.6,1.74,1.74,0,0,1-.7-1.43,2.08,2.08,0,0,1,.92-1.72,3.83,3.83,0,0,1,2.32-.68,7.64,7.64,0,0,1,1.43.16c.3.07.59.13.87.21a.85.85,0,0,1,.61.83Z"/><path class="cls-9" d="M123.22,36.4a5.57,5.57,0,0,0-1.92-1.94,6.55,6.55,0,0,0-3.41-.77,11.68,11.68,0,0,0-4.78.9,7.32,7.32,0,0,0-1.75,1,.87.87,0,0,1-1.22-.16.91.91,0,0,1-.18-.53.87.87,0,0,0-.86-.88H104a.87.87,0,0,0-.88.88V54.24a.86.86,0,0,0,.86.87h5.87a.87.87,0,0,0,.87-.87V43.51a.94.94,0,0,1,.07-.37,5,5,0,0,1,1.52-2,3.4,3.4,0,0,1,2.07-.84A2.22,2.22,0,0,1,116,41a3.09,3.09,0,0,1,.71,2.26v11a.85.85,0,0,0,.85.87h5.87a.87.87,0,0,0,.87-.87v-13a16.19,16.19,0,0,0-.2-2.4A7.36,7.36,0,0,0,123.22,36.4Z"/><path class="cls-10" d="M149.75,48.62a1.19,1.19,0,0,1-.52-.37,2.53,2.53,0,0,1-.32-1.5V35a.88.88,0,0,0-.86-.88h-5.87a.89.89,0,0,0-.87.88V46.67a.92.92,0,0,1-.16.53,4.25,4.25,0,0,1-1.68,1.52,4.42,4.42,0,0,1-1.8.4,2,2,0,0,1-1.69-.76,3.34,3.34,0,0,1-.62-2.16V35a.89.89,0,0,0-.89-.83h-5.86a.89.89,0,0,0-.88.88V47.92a8.4,8.4,0,0,0,1.69,5.66,6.07,6.07,0,0,0,4.88,1.93,12.1,12.1,0,0,0,4.68-.85,8.51,8.51,0,0,0,3.51-2.83l.16.77q.6,2.91,4.48,2.91a14.91,14.91,0,0,0,2.49-.25.86.86,0,0,0,.7-.86v-5A.89.89,0,0,0,149.75,48.62Z"/><path class="cls-11" d="M173.57,36.4a5.6,5.6,0,0,0-1.93-1.94,6.56,6.56,0,0,0-3.42-.77,11.64,11.64,0,0,0-4.77.9,7.32,7.32,0,0,0-1.75,1,.86.86,0,0,1-1.21-.19.81.81,0,0,1-.16-.47.89.89,0,0,0-.87-.88h-5.1a.89.89,0,0,0-.87.88V54.24a.87.87,0,0,0,.87.87h5.86a.87.87,0,0,0,.87-.87V43.51a.94.94,0,0,1,.07-.37,5,5,0,0,1,1.52-2,3.4,3.4,0,0,1,2.07-.84,2.28,2.28,0,0,1,1.63.7,3.12,3.12,0,0,1,.69,2.26v11a.87.87,0,0,0,.87.87h5.83a.87.87,0,0,0,.87-.87v-13a16.17,16.17,0,0,0-.19-2.4A7.58,7.58,0,0,0,173.57,36.4Z"/><path class="cls-12" d="M188.65,40.08a3.29,3.29,0,0,1,2.59,1.15.9.9,0,0,0,.93.23l5.73-1.73a.88.88,0,0,0,.59-1.1.91.91,0,0,0-.11-.22,10.55,10.55,0,0,0-3.27-3.11,12,12,0,0,0-6.42-1.59,12.75,12.75,0,0,0-5,.9A10.68,10.68,0,0,0,180.11,37a10.15,10.15,0,0,0-2.2,3.46,11.58,11.58,0,0,0,0,8.28,10,10,0,0,0,2.21,3.47,10.71,10.71,0,0,0,3.62,2.4,12.57,12.57,0,0,0,5,.9,11.83,11.83,0,0,0,6.42-1.6,10.41,10.41,0,0,0,3.27-3.1.87.87,0,0,0-.25-1.22,1,1,0,0,0-.23-.11l-5.73-1.72a.88.88,0,0,0-.93.22,3.26,3.26,0,0,1-2.59,1.15A3.45,3.45,0,0,1,186,48a4.78,4.78,0,0,1-1-3.34,4.81,4.81,0,0,1,1-3.34A3.48,3.48,0,0,1,188.65,40.08Z"/><rect class="cls-13" x="201.37" y="25.93" width="7.6" height="6.39" rx="0.87" ry="0.87"/><rect class="cls-14" x="201.37" y="34.08" width="7.6" height="21.03" rx="0.87" ry="0.87"/><path class="cls-15" d="M233.93,40.46A9.93,9.93,0,0,0,231.7,37a10.64,10.64,0,0,0-3.61-2.39,14.17,14.17,0,0,0-9.94,0,10.65,10.65,0,0,0-3.6,2.39,9.85,9.85,0,0,0-2.2,3.48,11.91,11.91,0,0,0,0,8.28,9.73,9.73,0,0,0,2.2,3.47,10.53,10.53,0,0,0,3.6,2.4,14.17,14.17,0,0,0,9.94,0,10.66,10.66,0,0,0,3.61-2.4,9.81,9.81,0,0,0,2.2-3.47,11.91,11.91,0,0,0,0-8.28Zm-8.1,7.46a3.59,3.59,0,0,1-5.07.29l-.29-.29a5,5,0,0,1-1-3.32,4.91,4.91,0,0,1,1-3.32,3.59,3.59,0,0,1,5.07-.29,4,4,0,0,1,.29.29,4.92,4.92,0,0,1,1,3.32A4.9,4.9,0,0,1,225.83,47.92Z"/><rect class="cls-16" x="34.35" y="62.3" width="1.98" height="2.36" rx="0.52" ry="0.52"/><path class="cls-17" d="M40.93,59.87a1,1,0,0,1,.81.36.27.27,0,0,0,.3.07l1.8-.54a.28.28,0,0,0,.18-.34.3.3,0,0,0,0-.08,3.21,3.21,0,0,0-1-1,3.86,3.86,0,0,0-2.07-.51,3.93,3.93,0,0,0-1.56.29,3.26,3.26,0,0,0-1.14.76A3,3,0,0,0,37.54,60a3.67,3.67,0,0,0,0,2.61,3.37,3.37,0,0,0,.73,1.09,3.48,3.48,0,0,0,1.14.75,4.18,4.18,0,0,0,1.56.28,3.76,3.76,0,0,0,2.07-.5,3.17,3.17,0,0,0,1-1,.27.27,0,0,0-.06-.38.19.19,0,0,0-.08,0l-1.8-.55a.28.28,0,0,0-.3.07,1,1,0,0,1-.81.36,1.09,1.09,0,0,1-.84-.37,1.79,1.79,0,0,1,0-2.07A1.1,1.1,0,0,1,40.93,59.87Z"/><path class="cls-18" d="M51,58.84a3.3,3.3,0,0,0-1.15-.76,4.5,4.5,0,0,0-3.19,0,3.39,3.39,0,0,0-1.15.76A3.12,3.12,0,0,0,44.78,60a3.81,3.81,0,0,0,0,2.66,3.33,3.33,0,0,0,.73,1.08,3.58,3.58,0,0,0,1.15.77,4.5,4.5,0,0,0,3.19,0A3.42,3.42,0,0,0,51,63.73a3.54,3.54,0,0,0,.72-1.11,4.08,4.08,0,0,0,0-2.63A3.2,3.2,0,0,0,51,58.84Zm-1.89,3.51a1,1,0,0,1-.86.38,1.1,1.1,0,0,1-.86-.38,1.88,1.88,0,0,1,0-2.13,1.1,1.1,0,0,1,.86-.38,1.08,1.08,0,0,1,.86.38A1.82,1.82,0,0,1,49.09,62.35Z"/><path class="cls-19" d="M63.32,58.66a1.6,1.6,0,0,0-.59-.62,1.94,1.94,0,0,0-1-.25,3.16,3.16,0,0,0-1.42.31,2.26,2.26,0,0,0-1,.86,1.51,1.51,0,0,0-.22-.44,1.37,1.37,0,0,0-.35-.37,1.71,1.71,0,0,0-.54-.27,2.82,2.82,0,0,0-.71-.09,3.33,3.33,0,0,0-1.49.29,2.23,2.23,0,0,0-1,.84v-1H53.31a.53.53,0,0,0-.52.52h0v5.68a.52.52,0,0,0,.52.52h1.4a.51.51,0,0,0,.51-.52V60.88a1.47,1.47,0,0,1,.49-.69,1,1,0,0,1,.62-.27.64.64,0,0,1,.48.22,1,1,0,0,1,.19.72v3.27a.52.52,0,0,0,.52.52H59a.52.52,0,0,0,.52-.52V60.88a1.5,1.5,0,0,1,.47-.69,1,1,0,0,1,.62-.27.64.64,0,0,1,.49.22,1,1,0,0,1,.19.72v3.27a.52.52,0,0,0,.52.52H63.1a.51.51,0,0,0,.52-.51h0V60.22a3.84,3.84,0,0,0-.07-.76A2,2,0,0,0,63.32,58.66Z"/></g></g></g></g></svg>