<?xml version="1.0" encoding="utf-8"?>
<!-- Generator: Adobe Illustrator 22.0.1, SVG Export Plug-In . SVG Version: 6.00 Build 0)  -->
<svg version="1.1" id="Capa_1" xmlns="http://www.w3.org/2000/svg" xmlns:xlink="http://www.w3.org/1999/xlink" x="0px" y="0px"
	 viewBox="0 0 70.4 68.2" style="enable-background:new 0 0 70.4 68.2;" xml:space="preserve">
<style type="text/css">
	.st0{enable-background:new    ;}
	.st1{fill:#54189E;}
</style>
<title>precio_basic</title>
<g id="Capa_2_1_">
	<g id="Capa_1-2">
		<g class="st0">
			<path class="st1" d="M45.1,11.7c-1.5,2.7-2.9,5.3-4.1,7.7c-1.2,2.4-2.3,4.8-3.2,7.1c-0.9,2.3-1.7,4.7-2.4,7.1
				c-0.7,2.4-1.2,5-1.6,7.8l-7.8,0c0.4-2.6,1-5.2,1.8-7.6c0.7-2.5,1.6-4.8,2.5-7.1c1-2.3,2-4.5,3.2-6.7c1.2-2.2,2.4-4.3,3.7-6.4
				l-15.8,0l0-6.1l23.7,0.1L45.1,11.7z"/>
		</g>
		<g class="st0">
			<path class="st1" d="M11.2,37.1v3.7H8.8v-3.6c-2.2,0-4.3-0.5-6.3-1.6v-4.7c0.6,0.5,1.6,1,2.9,1.5c1.3,0.5,2.4,0.7,3.4,0.8V27
				c-2.6-1-4.4-2-5.3-3.2C2.5,22.7,2,21.3,2,19.6c0-1.8,0.6-3.3,1.8-4.5c1.2-1.2,2.9-2,4.9-2.2V9.8h2.4v3.1c2.3,0.1,4.1,0.5,5.2,1.2
				v4.6c-1.5-1-3.3-1.5-5.2-1.8v6.4c2.4,0.9,4.2,1.9,5.2,3.1c1.1,1.1,1.6,2.5,1.6,4.2c0,1.9-0.6,3.4-1.8,4.5
				C15,36.1,13.4,36.8,11.2,37.1z M8.8,22.3v-5.4c-1.5,0.3-2.3,1.1-2.3,2.5C6.5,20.5,7.2,21.5,8.8,22.3z M11.2,28v5.1
				c1.6-0.2,2.4-1.1,2.4-2.4C13.6,29.6,12.8,28.7,11.2,28z"/>
		</g>
		<g class="st0">
			<path class="st1" d="M54.6,37.9c0,2.5-1.1,3.7-3.2,3.7c-2,0-3-1.2-3-3.6v-5.4h0.8V38c0,1,0.2,1.7,0.6,2.2s1,0.7,1.8,0.7
				c1.5,0,2.3-0.9,2.3-2.8v-5.4h0.8V37.9z"/>
			<path class="st1" d="M56.4,40.2c0.1,0.1,0.3,0.2,0.5,0.3s0.4,0.2,0.5,0.2c0.2,0.1,0.4,0.1,0.6,0.1c0.2,0,0.4,0,0.5,0
				c0.7,0,1.1-0.1,1.5-0.4c0.3-0.3,0.5-0.6,0.5-1.1c0-0.2,0-0.4-0.1-0.6c-0.1-0.2-0.2-0.3-0.4-0.5c-0.2-0.2-0.4-0.3-0.6-0.5
				c-0.2-0.1-0.5-0.3-0.9-0.5c-0.4-0.2-0.7-0.4-1-0.6c-0.3-0.2-0.5-0.4-0.6-0.6c-0.2-0.2-0.3-0.4-0.4-0.6c-0.1-0.2-0.1-0.5-0.1-0.8
				c0-0.4,0.1-0.7,0.2-1c0.1-0.3,0.3-0.5,0.6-0.7s0.5-0.4,0.9-0.5c0.3-0.1,0.7-0.2,1.1-0.2c0.7,0,1.2,0.1,1.7,0.3v0.9
				c-0.5-0.3-1.1-0.4-1.8-0.4c-0.3,0-0.5,0-0.7,0.1c-0.2,0.1-0.4,0.2-0.6,0.3c-0.2,0.1-0.3,0.3-0.4,0.5s-0.1,0.4-0.1,0.6
				c0,0.2,0,0.4,0.1,0.6s0.2,0.3,0.3,0.5c0.1,0.1,0.3,0.3,0.6,0.4c0.2,0.1,0.5,0.3,0.9,0.5c0.4,0.2,0.7,0.4,0.9,0.6
				c0.3,0.2,0.5,0.4,0.7,0.6c0.2,0.2,0.3,0.4,0.4,0.6s0.1,0.5,0.1,0.8c0,0.4-0.1,0.7-0.2,1c-0.1,0.3-0.3,0.5-0.6,0.7
				c-0.3,0.2-0.6,0.3-0.9,0.4c-0.3,0.1-0.7,0.1-1.2,0.1c-0.1,0-0.3,0-0.5,0c-0.2,0-0.4-0.1-0.6-0.1c-0.2,0-0.4-0.1-0.6-0.2
				c-0.2-0.1-0.3-0.1-0.4-0.2V40.2z"/>
			<path class="st1" d="M63.1,41.5v-8.8h2.3c1.5,0,2.6,0.4,3.4,1.1s1.1,1.8,1.1,3.2c0,0.7-0.1,1.3-0.3,1.9s-0.5,1-0.9,1.4
				c-0.4,0.4-0.9,0.7-1.4,0.9c-0.6,0.2-1.2,0.3-1.9,0.3H63.1z M63.9,33.4v7.3h1.3c0.6,0,1.1-0.1,1.6-0.2s0.9-0.4,1.2-0.7
				s0.6-0.7,0.7-1.2c0.2-0.5,0.3-1,0.3-1.6c0-2.4-1.2-3.6-3.7-3.6H63.9z"/>
		</g>
		<g class="st0">
			<path class="st1" d="M8.5,52.2l2.4,3.5l0.2,0.4l0.2-0.4l2.4-3.5h3l-4,5.6l4.1,5.6h-3l-2.5-3.5l-0.2-0.4l-0.2,0.4l-2.5,3.5h-3
				l4-5.6l-4-5.6H8.5z"/>
			<path class="st1" d="M40.6,63.4h-2.9v-6.3c0-0.9-0.2-1.6-0.5-2c-0.3-0.4-0.7-0.6-1.3-0.6c-0.6,0-1.1,0.2-1.6,0.7
				c-0.5,0.4-0.9,1-1.1,1.7v6.5h-2.9v-6.3c0-0.9-0.2-1.6-0.5-2c-0.3-0.4-0.7-0.6-1.3-0.6c-0.6,0-1.1,0.2-1.6,0.6
				c-0.5,0.4-0.9,1-1.1,1.7v6.5h-2.9V52.2h2.6v2.1c0.4-0.7,1-1.3,1.7-1.7S29,52,30,52c0.9,0,1.7,0.2,2.2,0.7c0.5,0.5,0.8,1,1,1.7
				c0.5-0.8,1-1.4,1.7-1.8c0.7-0.4,1.5-0.6,2.4-0.6c0.7,0,1.2,0.1,1.7,0.4s0.8,0.6,1,1c0.2,0.4,0.4,0.9,0.5,1.4s0.1,1.1,0.1,1.6
				V63.4z"/>
			<path class="st1" d="M48.3,63.6c-0.9,0-1.7-0.2-2.4-0.5s-1.3-0.7-1.9-1.3c-0.5-0.5-0.9-1.1-1.2-1.8c-0.3-0.7-0.4-1.4-0.4-2.2
				c0-0.8,0.1-1.6,0.4-2.3c0.3-0.7,0.7-1.3,1.2-1.9c0.5-0.5,1.1-1,1.9-1.3c0.7-0.3,1.6-0.5,2.5-0.5c0.9,0,1.7,0.2,2.4,0.5
				c0.7,0.3,1.3,0.7,1.8,1.3c0.5,0.5,0.9,1.1,1.2,1.8c0.3,0.7,0.4,1.4,0.4,2.2c0,0.2,0,0.4,0,0.5c0,0.2,0,0.3-0.1,0.4h-8.7
				c0,0.4,0.1,0.8,0.3,1.2c0.2,0.3,0.4,0.6,0.7,0.9c0.3,0.2,0.6,0.4,0.9,0.6c0.3,0.1,0.7,0.2,1.1,0.2c0.6,0,1.1-0.1,1.6-0.4
				c0.5-0.3,0.9-0.6,1-1.1l2.5,0.7c-0.4,0.9-1.1,1.6-2,2.1S49.6,63.6,48.3,63.6z M51.2,56.8c-0.1-0.8-0.4-1.5-0.9-2s-1.2-0.8-2-0.8
				c-0.4,0-0.7,0.1-1.1,0.2c-0.3,0.1-0.6,0.3-0.9,0.6s-0.5,0.5-0.6,0.9c-0.2,0.3-0.3,0.7-0.3,1.1H51.2z"/>
			<path class="st1" d="M60.2,63.6c-0.9,0-1.9-0.1-2.8-0.4s-1.7-0.7-2.3-1.3l1.1-1.8c0.7,0.5,1.4,0.9,2,1.1c0.6,0.3,1.3,0.4,1.9,0.4
				c0.6,0,1-0.1,1.3-0.3s0.5-0.5,0.5-0.9s-0.2-0.7-0.6-0.9s-1-0.4-1.9-0.6c-0.7-0.2-1.3-0.4-1.9-0.6c-0.5-0.2-0.9-0.4-1.2-0.6
				s-0.5-0.5-0.7-0.8s-0.2-0.7-0.2-1.1c0-0.6,0.1-1.1,0.3-1.5c0.2-0.5,0.5-0.8,0.9-1.2c0.4-0.3,0.9-0.6,1.4-0.7
				c0.5-0.2,1.1-0.3,1.7-0.3c0.8,0,1.6,0.1,2.4,0.4s1.4,0.6,2,1.2l-1.2,1.7c-0.6-0.4-1.1-0.7-1.7-0.9c-0.5-0.2-1.1-0.3-1.6-0.3
				c-0.5,0-0.9,0.1-1.2,0.3c-0.3,0.2-0.5,0.5-0.5,1c0,0.2,0,0.4,0.1,0.5c0.1,0.1,0.2,0.2,0.4,0.3s0.4,0.2,0.7,0.3s0.6,0.2,1,0.3
				c0.8,0.2,1.4,0.4,2,0.6c0.5,0.2,1,0.4,1.3,0.7c0.3,0.3,0.6,0.6,0.8,0.9s0.2,0.7,0.2,1.2c0,1.1-0.4,2-1.2,2.6
				C62.7,63.3,61.6,63.6,60.2,63.6z"/>
		</g>
	</g>
</g>
</svg>
