<?xml version="1.0" encoding="utf-8"?>
<!-- Generator: Adobe Illustrator 22.0.1, SVG Export Plug-In . SVG Version: 6.00 Build 0)  -->
<svg version="1.1" id="Capa_1" xmlns="http://www.w3.org/2000/svg" xmlns:xlink="http://www.w3.org/1999/xlink" x="0px" y="0px"
	 viewBox="0 0 89.9 66.9" style="enable-background:new 0 0 89.9 66.9;" xml:space="preserve">
<style type="text/css">
	.st0{enable-background:new    ;}
	.st1{fill:#54189E;}
</style>
<title>precio_deluxe</title>
<g id="Capa_2_1_">
	<g id="Capa_1-2">
		<g class="st0">
			<path class="st1" d="M18.3,50.8l2.4,3.5l0.2,0.4l0.2-0.4l2.4-3.5h3l-4,5.6l4.1,5.6h-3l-2.5-3.5l-0.2-0.4l-0.2,0.4L18.2,62h-3
				l4-5.6l-4-5.6H18.3z"/>
			<path class="st1" d="M50.4,62h-2.9v-6.3c0-0.9-0.2-1.6-0.5-2c-0.3-0.4-0.7-0.6-1.3-0.6c-0.6,0-1.1,0.2-1.6,0.7
				c-0.5,0.4-0.9,1-1.1,1.7V62h-2.9v-6.3c0-0.9-0.2-1.6-0.5-2c-0.3-0.4-0.7-0.6-1.3-0.6c-0.6,0-1.1,0.2-1.6,0.6
				c-0.5,0.4-0.9,1-1.1,1.7V62H33V50.8h2.6v2.1c0.4-0.7,1-1.3,1.7-1.7s1.5-0.6,2.5-0.6c0.9,0,1.7,0.2,2.2,0.7c0.5,0.5,0.8,1,1,1.7
				c0.5-0.8,1-1.4,1.7-1.8c0.7-0.4,1.5-0.6,2.4-0.6c0.7,0,1.2,0.1,1.7,0.4c0.4,0.3,0.8,0.6,1,1c0.2,0.4,0.4,0.9,0.5,1.4
				s0.1,1.1,0.1,1.6V62z"/>
			<path class="st1" d="M58.1,62.3c-0.9,0-1.7-0.2-2.4-0.5c-0.7-0.3-1.3-0.7-1.9-1.3c-0.5-0.5-0.9-1.1-1.2-1.8
				c-0.3-0.7-0.4-1.4-0.4-2.2c0-0.8,0.1-1.6,0.4-2.3s0.7-1.3,1.2-1.9c0.5-0.5,1.1-1,1.9-1.3c0.7-0.3,1.6-0.5,2.5-0.5
				c0.9,0,1.7,0.2,2.4,0.5c0.7,0.3,1.3,0.7,1.8,1.3c0.5,0.5,0.9,1.1,1.2,1.8c0.3,0.7,0.4,1.4,0.4,2.2c0,0.2,0,0.4,0,0.5
				c0,0.2,0,0.3-0.1,0.4h-8.7c0,0.4,0.2,0.8,0.3,1.2c0.2,0.3,0.4,0.6,0.7,0.9c0.3,0.2,0.6,0.4,0.9,0.6c0.3,0.1,0.7,0.2,1.1,0.2
				c0.6,0,1.1-0.1,1.6-0.4c0.5-0.3,0.9-0.6,1-1.1l2.5,0.7c-0.4,0.9-1.1,1.6-2,2.1C60.4,62,59.4,62.3,58.1,62.3z M61,55.5
				c-0.1-0.8-0.4-1.5-0.9-2s-1.2-0.8-2-0.8c-0.4,0-0.7,0.1-1.1,0.2c-0.3,0.1-0.6,0.3-0.9,0.6c-0.3,0.2-0.5,0.5-0.6,0.9
				c-0.2,0.3-0.3,0.7-0.3,1.1H61z"/>
			<path class="st1" d="M70,62.3c-0.9,0-1.9-0.1-2.8-0.4s-1.7-0.7-2.3-1.3l1.1-1.8c0.7,0.5,1.4,0.9,2,1.1c0.6,0.3,1.3,0.4,1.9,0.4
				c0.6,0,1-0.1,1.3-0.3s0.5-0.5,0.5-0.9s-0.2-0.7-0.6-0.9c-0.4-0.2-1-0.4-1.9-0.6c-0.7-0.2-1.3-0.4-1.9-0.6
				c-0.5-0.2-0.9-0.4-1.2-0.6c-0.3-0.2-0.5-0.5-0.7-0.8s-0.2-0.7-0.2-1.1c0-0.6,0.1-1.1,0.3-1.5c0.2-0.5,0.5-0.8,0.9-1.2
				c0.4-0.3,0.9-0.6,1.4-0.7c0.5-0.2,1.1-0.3,1.7-0.3c0.8,0,1.6,0.1,2.4,0.4s1.4,0.6,2,1.2l-1.2,1.7c-0.6-0.4-1.1-0.7-1.7-0.9
				c-0.5-0.2-1.1-0.3-1.6-0.3c-0.5,0-0.9,0.1-1.2,0.3c-0.3,0.2-0.5,0.5-0.5,1c0,0.2,0,0.4,0.1,0.5c0.1,0.1,0.2,0.2,0.4,0.3
				c0.2,0.1,0.4,0.2,0.7,0.3c0.3,0.1,0.6,0.2,1,0.3c0.8,0.2,1.4,0.4,2,0.6c0.5,0.2,1,0.4,1.3,0.7c0.3,0.3,0.6,0.6,0.8,0.9
				s0.2,0.7,0.2,1.2c0,1.1-0.4,2-1.2,2.6C72.5,61.9,71.4,62.3,70,62.3z"/>
		</g>
		<g class="st0">
			<path class="st1" d="M27.2,33.3h13.7v5.9H19.4v-2.4c0-1.7,0.3-3.1,0.8-4.4s1.3-2.5,2.1-3.5c0.8-1,1.8-2,2.8-2.8
				c1-0.8,1.9-1.5,2.8-2.2c0.9-0.7,1.8-1.3,2.5-1.9c0.7-0.6,1.3-1.2,1.8-1.8s0.9-1.2,1.1-1.8c0.2-0.6,0.4-1.3,0.4-2
				c0-1.4-0.4-2.4-1.2-3.1s-2-1.1-3.6-1.1c-2.8,0-5.4,1.1-8,3.3V9.1c2.8-1.8,6-2.7,9.5-2.7c1.6,0,3.1,0.2,4.4,0.6
				c1.3,0.4,2.4,1,3.3,1.8s1.6,1.8,2.1,2.9c0.5,1.1,0.7,2.4,0.7,3.8c0,1.5-0.2,2.8-0.7,4s-1.1,2.2-1.8,3.2c-0.8,0.9-1.6,1.8-2.6,2.6
				c-1,0.8-2,1.6-3.1,2.3c-0.7,0.5-1.4,1-2.1,1.5c-0.7,0.5-1.3,1-1.8,1.5s-0.9,1-1.2,1.4C27.3,32.5,27.2,32.9,27.2,33.3z"/>
			<path class="st1" d="M47.3,38.4v-6.1c2.2,1.4,4.6,2,7.1,2c1.9,0,3.3-0.4,4.4-1.3c1.1-0.9,1.6-2.1,1.6-3.6c0-3.2-2.3-4.8-6.8-4.8
				c-1.7,0-3.6,0.1-5.8,0.4l1.2-18h17.1v5.8H54.4L54,19.2c1.2-0.1,2.2-0.1,3-0.1c3.3,0,5.9,0.9,7.8,2.6c1.9,1.7,2.8,4.1,2.8,7
				c0,3.3-1.1,5.9-3.4,8c-2.2,2.1-5.3,3.1-9.1,3.1C52,39.8,49.4,39.3,47.3,38.4z"/>
		</g>
		<g class="st0">
			<path class="st1" d="M10.6,35.1v3.5H8.3v-3.4c-2.1,0-4.1-0.5-6-1.5v-4.4c0.6,0.5,1.5,1,2.7,1.4c1.2,0.4,2.3,0.7,3.2,0.7v-5.8
				c-2.5-0.9-4.1-1.9-5-3c-0.9-1.1-1.3-2.4-1.3-4c0-1.7,0.6-3.1,1.7-4.3c1.2-1.2,2.7-1.9,4.6-2.1v-3h2.3v2.9c2.2,0.1,3.9,0.5,5,1.1
				v4.3c-1.5-0.9-3.1-1.5-5-1.7v6.1c2.3,0.8,3.9,1.8,4.9,2.9s1.5,2.4,1.5,3.9c0,1.8-0.6,3.2-1.7,4.3C14.3,34.2,12.7,34.8,10.6,35.1z
				 M8.3,21v-5.1c-1.5,0.3-2.2,1-2.2,2.3C6.1,19.3,6.9,20.3,8.3,21z M10.6,26.4v4.9c1.5-0.2,2.3-1,2.3-2.3
				C12.9,27.9,12.1,27.1,10.6,26.4z"/>
		</g>
		<g class="st0">
			<path class="st1" d="M74.9,35.9c0,2.3-1,3.5-3,3.5c-1.9,0-2.9-1.1-2.9-3.4v-5.1h0.8v5.1c0,0.9,0.2,1.6,0.5,2.1
				c0.4,0.5,0.9,0.7,1.7,0.7c1.4,0,2.2-0.9,2.2-2.7v-5.2h0.8V35.9z"/>
			<path class="st1" d="M76.6,38c0.1,0.1,0.3,0.2,0.5,0.3c0.2,0.1,0.3,0.2,0.5,0.2c0.2,0.1,0.3,0.1,0.5,0.1c0.2,0,0.3,0,0.5,0
				c0.6,0,1.1-0.1,1.4-0.4c0.3-0.2,0.5-0.6,0.5-1.1c0-0.2,0-0.4-0.1-0.6c-0.1-0.2-0.2-0.3-0.3-0.5s-0.3-0.3-0.6-0.4
				c-0.2-0.1-0.5-0.3-0.8-0.5c-0.4-0.2-0.7-0.4-0.9-0.6s-0.5-0.4-0.6-0.5c-0.2-0.2-0.3-0.4-0.3-0.6c-0.1-0.2-0.1-0.4-0.1-0.7
				c0-0.3,0.1-0.6,0.2-0.9c0.1-0.3,0.3-0.5,0.6-0.7c0.2-0.2,0.5-0.3,0.8-0.4c0.3-0.1,0.7-0.2,1-0.2c0.6,0,1.2,0.1,1.6,0.3v0.9
				c-0.5-0.3-1.1-0.4-1.7-0.4c-0.2,0-0.5,0-0.7,0.1s-0.4,0.1-0.6,0.3s-0.3,0.3-0.4,0.4s-0.1,0.4-0.1,0.6c0,0.2,0,0.4,0.1,0.6
				c0.1,0.2,0.2,0.3,0.3,0.4s0.3,0.3,0.5,0.4c0.2,0.1,0.5,0.3,0.8,0.5c0.3,0.2,0.6,0.4,0.9,0.5c0.3,0.2,0.5,0.4,0.6,0.6
				c0.2,0.2,0.3,0.4,0.4,0.6c0.1,0.2,0.1,0.5,0.1,0.7c0,0.4-0.1,0.7-0.2,1c-0.1,0.3-0.3,0.5-0.6,0.7s-0.5,0.3-0.9,0.4
				c-0.3,0.1-0.7,0.1-1.1,0.1c-0.1,0-0.3,0-0.5,0s-0.4-0.1-0.5-0.1s-0.4-0.1-0.5-0.1s-0.3-0.1-0.4-0.2V38z"/>
			<path class="st1" d="M82.9,39.2v-8.4h2.2c1.4,0,2.5,0.3,3.2,1c0.7,0.7,1.1,1.7,1.1,3c0,0.6-0.1,1.2-0.3,1.8s-0.5,1-0.9,1.4
				c-0.4,0.4-0.8,0.7-1.4,0.9c-0.5,0.2-1.1,0.3-1.8,0.3H82.9z M83.7,31.6v7h1.3c0.6,0,1.1-0.1,1.5-0.2c0.4-0.2,0.8-0.4,1.1-0.7
				s0.5-0.7,0.7-1.1s0.2-1,0.2-1.5c0-2.3-1.2-3.4-3.5-3.4H83.7z"/>
		</g>
	</g>
</g>
</svg>
